<mxfile host="app.diagrams.net" agent="Mozilla/5.0 (Windows NT 10.0; Win64; x64) AppleWebKit/537.36 (KHTML, like Gecko) Chrome/138.0.0.0 Safari/537.36 Edg/138.0.0.0" version="27.2.0">
  <diagram name="4-1" id="I6aplZ_FXBZ0MlfXEpN3">
    <mxGraphModel dx="976" dy="702" grid="1" gridSize="10" guides="1" tooltips="1" connect="1" arrows="1" fold="1" page="1" pageScale="1" pageWidth="827" pageHeight="1169" math="0" shadow="0">
      <root>
        <mxCell id="0" />
        <mxCell id="1" parent="0" />
        <mxCell id="gTGxV8-59fSvOtrian-y-1" value="&lt;font style=&quot;font-size: 18px;&quot;&gt;静态随机访问存储器（SRAM）&lt;/font&gt;" style="shape=trapezoid;perimeter=trapezoidPerimeter;whiteSpace=wrap;html=1;fixedSize=1;" vertex="1" parent="1">
          <mxGeometry x="160" y="200" width="310" height="80" as="geometry" />
        </mxCell>
        <mxCell id="gTGxV8-59fSvOtrian-y-3" value="&lt;font style=&quot;font-size: 18px;&quot;&gt;动态随机访问存储器（SRAM）&lt;/font&gt;" style="shape=trapezoid;perimeter=trapezoidPerimeter;whiteSpace=wrap;html=1;fixedSize=1;" vertex="1" parent="1">
          <mxGeometry x="135" y="300" width="360" height="80" as="geometry" />
        </mxCell>
        <mxCell id="gTGxV8-59fSvOtrian-y-4" value="&lt;font style=&quot;font-size: 18px;&quot;&gt;磁盘存储器&lt;/font&gt;" style="shape=trapezoid;perimeter=trapezoidPerimeter;whiteSpace=wrap;html=1;fixedSize=1;" vertex="1" parent="1">
          <mxGeometry x="110" y="400" width="410" height="80" as="geometry" />
        </mxCell>
        <mxCell id="gTGxV8-59fSvOtrian-y-5" value="&lt;font style=&quot;font-size: 18px;&quot;&gt;磁带、光盘、网络存储系统等&lt;/font&gt;" style="shape=trapezoid;perimeter=trapezoidPerimeter;whiteSpace=wrap;html=1;fixedSize=1;" vertex="1" parent="1">
          <mxGeometry x="85" y="504.5" width="460" height="80" as="geometry" />
        </mxCell>
        <mxCell id="gTGxV8-59fSvOtrian-y-6" value="" style="endArrow=classic;html=1;rounded=0;strokeWidth=3;" edge="1" parent="1">
          <mxGeometry width="50" height="50" relative="1" as="geometry">
            <mxPoint x="30" y="590" as="sourcePoint" />
            <mxPoint x="30" y="200" as="targetPoint" />
          </mxGeometry>
        </mxCell>
        <mxCell id="gTGxV8-59fSvOtrian-y-7" value="" style="endArrow=classic;html=1;rounded=0;strokeWidth=3;" edge="1" parent="1">
          <mxGeometry width="50" height="50" relative="1" as="geometry">
            <mxPoint x="600" y="200" as="sourcePoint" />
            <mxPoint x="600" y="590" as="targetPoint" />
          </mxGeometry>
        </mxCell>
        <mxCell id="gTGxV8-59fSvOtrian-y-8" value="1-2ns" style="text;html=1;align=center;verticalAlign=middle;whiteSpace=wrap;rounded=0;" vertex="1" parent="1">
          <mxGeometry x="170" y="250" width="60" height="30" as="geometry" />
        </mxCell>
        <mxCell id="gTGxV8-59fSvOtrian-y-9" value="10ns" style="text;html=1;align=center;verticalAlign=middle;whiteSpace=wrap;rounded=0;" vertex="1" parent="1">
          <mxGeometry x="150" y="350" width="60" height="30" as="geometry" />
        </mxCell>
        <mxCell id="gTGxV8-59fSvOtrian-y-10" value="10ms" style="text;html=1;align=center;verticalAlign=middle;whiteSpace=wrap;rounded=0;" vertex="1" parent="1">
          <mxGeometry x="135" y="450" width="60" height="30" as="geometry" />
        </mxCell>
        <mxCell id="gTGxV8-59fSvOtrian-y-12" value="10s" style="text;html=1;align=center;verticalAlign=middle;whiteSpace=wrap;rounded=0;" vertex="1" parent="1">
          <mxGeometry x="120" y="555" width="60" height="30" as="geometry" />
        </mxCell>
      </root>
    </mxGraphModel>
  </diagram>
</mxfile>
